# xmcd CD database file
#
# Track frame offsets:
#	150
#	9670
#	19697
#	29512
#	39685
#	54615
#	64080
#	72755
#	81765
#	91547
#	102990
#	112832
#	121857
#	133110
#
# Disc length: 1940 seconds
#
# Revision: 0
# Processed by: cddbd v1.4PL0 Copyright (c) Steve Scherf et al.
# Submitted via: CDex 1.50beta9
#
DISCID=af07920e
DTITLE=Peggy Lee - LATIN ! PEGGY¥LEE -C'ET MAGNIFIQUE-
DYEAR=1993
DGENRE=Jazz
TTITLE0=C'ET MAGINIFIQUE
TTITLE1=ON THE STREET WHERE YOU LIVE
TTITLE2=HEY THERE
TTITLE3=I ENJOY BEING A GIRL
TTITLE4=THE PARTY'S OVER
TTITLE5=FANTASTICO
TTITLE6=JUST SQUEEZE ME
TTITLE7=HEART
TTITLE8=I COULD HAVE DANCED ALL NIGHT
TTITLE9=TILL THERE WAS YOU
TTITLE10=I AM IN LOVE
TTITLE11=THE SURREY WITH THE FRINGE ON TOP
TTITLE12=DANCE ONLY WITH ME
TTITLE13=WISH YOU WERE HERE
EXTD=YEAR: 1993
EXTT0=
EXTT1=
EXTT2=
EXTT3=
EXTT4=
EXTT5=
EXTT6=
EXTT7=
EXTT8=
EXTT9=
EXTT10=
EXTT11=
EXTT12=
EXTT13=
PLAYORDER=
